<?xml version="1.0" encoding="UTF-8"?>
<svg id="Capa_2" data-name="Capa 2" xmlns="http://www.w3.org/2000/svg" viewBox="0 0 106.46 106.46">
  <defs>
    <style>
      .cls-1 {
        fill: #f16126;
      }

      .cls-2 {
        fill: #fff;
      }

      .cls-3 {
        fill: #163249;
      }

      .cls-4 {
        fill: #0d1c26;
      }
    </style>
  </defs>
  <g id="OBJECTS">
    <g>
      <circle class="cls-2" cx="53.23" cy="53.23" r="53.23" transform="translate(-22.05 53.23) rotate(-45)"/>
      <polygon class="cls-1" points="64.34 58.94 95.12 53.23 64.34 47.52 76.2 30.26 58.94 42.12 53.23 11.34 47.52 42.12 30.26 30.26 42.12 47.52 11.34 53.23 42.12 58.94 30.26 76.2 47.52 64.34 53.23 95.12 58.94 64.34 76.2 76.2 64.34 58.94"/>
      <path class="cls-3" d="M53.23,95.7c-23.41,0-42.46-19.05-42.46-42.46S29.82,10.77,53.23,10.77s42.46,19.05,42.46,42.46-19.05,42.46-42.46,42.46ZM53.23,11.92c-22.78,0-41.32,18.53-41.32,41.32s18.53,41.32,41.32,41.32,41.32-18.53,41.32-41.32S76.01,11.92,53.23,11.92Z"/>
      <g>
        <g>
          <polygon class="cls-4" points="60.48 56.27 64.07 30.8 46.18 49.98 46.03 50.05 46.01 50.16 45.94 50.24 46 50.27 42.39 75.87 60.37 56.59 60.43 56.61 60.45 56.5 60.53 56.42 60.48 56.27"/>
          <polygon class="cls-3" points="57.12 45.24 64.07 30.8 46.18 49.98 46.03 50.05 46.01 50.16 45.94 50.24 46 50.27 42.39 75.87 53.15 53.5 53.15 53.5 54.84 49.98 57.12 45.24 57.12 45.24"/>
        </g>
        <path class="cls-2" d="M57.47,55.28c-1.08,2.35-3.86,3.37-6.2,2.29-2.35-1.08-3.37-3.86-2.29-6.2,1.08-2.35,3.86-3.37,6.2-2.29,2.35,1.08,3.37,3.86,2.29,6.2Z"/>
        <circle class="cls-3" cx="53.23" cy="53.33" r="2.75"/>
      </g>
      <path class="cls-3" d="M53.23,106.46C23.88,106.46,0,82.58,0,53.23S23.88,0,53.23,0s53.23,23.88,53.23,53.23-23.88,53.23-53.23,53.23ZM53.23,3.44C25.78,3.44,3.44,25.78,3.44,53.23s22.33,49.79,49.79,49.79,49.79-22.33,49.79-49.79S80.69,3.44,53.23,3.44Z"/>
    </g>
  </g>
</svg>